<svg height="512" viewBox="0 0 512 512" width="512" xmlns="http://www.w3.org/2000/svg"><g><path d="m48 192h200a8 8 0 0 0 0-16h-200a8 8 0 0 0 0 16z"/><path d="m48 224h208a8 8 0 0 0 0-16h-208a8 8 0 0 0 0 16z"/><path d="m48 256h160a8 8 0 0 0 0-16h-160a8 8 0 0 0 0 16z"/><path d="m232 240a8 8 0 0 0 0 16h8a8 8 0 0 0 0-16z"/><path d="m304 368h-256a8 8 0 0 0 0 16h256a8 8 0 0 0 0-16z"/><path d="m304 400h-256a8 8 0 0 0 0 16h256a8 8 0 0 0 0-16z"/><path d="m208 432h-160a8 8 0 0 0 0 16h160a8 8 0 0 0 0-16z"/><path d="m240 432h-8a8 8 0 0 0 0 16h8a8 8 0 0 0 0-16z"/><path d="m136 280a8 8 0 0 0 8 8h160a8 8 0 0 0 0-16h-160a8 8 0 0 0 -8 8z"/><path d="m304 304h-160a8 8 0 0 0 0 16h160a8 8 0 0 0 0-16z"/><path d="m208 352a8 8 0 0 0 0-16h-64a8 8 0 0 0 0 16z"/><path d="m240 352a8 8 0 0 0 0-16h-8a8 8 0 0 0 0 16z"/><path d="m48 352h64a8 8 0 0 0 8-8v-64a8 8 0 0 0 -8-8h-64a8 8 0 0 0 -8 8v64a8 8 0 0 0 8 8zm8-64h48v48h-48z"/><path d="m448 280h-104v-34.8a104.027 104.027 0 0 0 128-101.2 8 8 0 0 0 -8-8h-88v-88a8 8 0 0 0 -8-8 103.782 103.782 0 0 0 -24 2.8v-26.8a8 8 0 0 0 -8-8h-320a8 8 0 0 0 -8 8v424a64.072 64.072 0 0 0 64 64h320a64.072 64.072 0 0 0 64-64v-152a8 8 0 0 0 -8-8zm-88-223.64v87.64a8 8 0 0 0 8 8h87.64a88 88 0 0 1 -175.34-.72c0-.05-.01-.11-.01-.16q-.285-3.525-.29-7.12a88.116 88.116 0 0 1 80-87.64zm-96 87.64h-208v-88h240v13.03a103.688 103.688 0 0 0 -32 74.97zm-192 344a48.051 48.051 0 0 1 -48-48v-416h304v24a104.494 104.494 0 0 0 -16 8.4v-8.4a8 8 0 0 0 -8-8h-256a8 8 0 0 0 -8 8v104a8 8 0 0 0 8 8h217.23a104.329 104.329 0 0 0 62.77 80v200a63.839 63.839 0 0 0 21.74 48zm368-48a48 48 0 0 1 -96 0v-144h96z"/><path d="m400 8a8 8 0 0 0 -8 8v96a8 8 0 0 0 8 8h96a8 8 0 0 0 8-8 104.112 104.112 0 0 0 -104-104zm8 96v-79.64a88.132 88.132 0 0 1 79.64 79.64z"/></g></svg>