<?xml version="1.0" standalone="no"?>
<!DOCTYPE svg PUBLIC "-//W3C//DTD SVG 20010904//EN"
 "http://www.w3.org/TR/2001/REC-SVG-20010904/DTD/svg10.dtd">
<svg version="1.0" xmlns="http://www.w3.org/2000/svg"
 width="422.000000pt" height="124.000000pt" viewBox="0 0 422.000000 124.000000"
 preserveAspectRatio="xMidYMid meet">

<g transform="translate(0.000000,124.000000) scale(0.100000,-0.100000)"
fill="#000000" stroke="none">
<path d="M475 1166 c-71 -23 -149 -65 -199 -108 -117 -100 -189 -282 -170
-425 l8 -58 12 96 c13 113 50 197 119 276 61 69 159 129 242 149 97 23 229 14
307 -20 61 -27 155 -90 170 -114 4 -8 17 -23 28 -34 59 -59 114 -238 103 -338
-4 -41 -4 -42 6 -15 5 17 10 66 11 110 1 168 -86 324 -236 419 -85 55 -160 76
-268 75 -51 0 -111 -6 -133 -13z"/>
<path d="M548 974 c-18 -20 -45 -49 -61 -65 -15 -15 -48 -52 -72 -80 l-45 -53
0 -298 c0 -164 -2 -298 -5 -298 -9 0 -58 32 -76 49 -9 9 -29 28 -45 42 -90 80
-142 169 -171 292 -13 60 -17 212 -5 232 12 18 39 104 32 100 -26 -16 -89
-267 -75 -295 1 -3 6 -33 9 -68 8 -71 41 -169 80 -230 41 -66 163 -182 191
-182 8 0 15 -4 15 -9 0 -21 159 -77 228 -80 31 -1 32 0 33 41 3 78 4 938 2
938 -1 0 -17 -16 -35 -36z m2 -429 c3 -203 3 -382 2 -396 l-4 -26 -62 17 c-34
9 -67 20 -74 24 -9 5 -12 85 -12 305 l0 297 58 63 c31 35 58 67 58 72 3 18 4
19 17 17 9 -2 13 -88 17 -373z"/>
<path d="M634 988 c-12 -38 6 -83 56 -138 l49 -55 -3 57 c-3 53 -7 62 -49 107
-41 44 -47 47 -53 29z"/>
<path d="M763 815 c1 -51 4 -58 44 -97 l43 -42 0 44 c0 35 -8 53 -40 97 -23
29 -42 53 -44 53 -2 0 -3 -25 -3 -55z"/>
<path d="M1134 845 c22 -60 30 -177 17 -252 -26 -162 -142 -332 -269 -396
l-32 -15 0 33 c0 25 -11 45 -44 81 l-44 49 2 -41 c1 -30 11 -53 36 -83 27 -35
30 -45 19 -52 -8 -5 -23 -7 -33 -5 -11 3 -25 -2 -32 -12 -12 -15 -14 -15 -15
8 -1 14 -2 30 -2 36 0 6 -23 37 -51 68 l-51 57 1 -50 c0 -42 5 -54 27 -71 51
-41 60 -52 45 -61 -20 -13 -39 -11 -58 6 -15 13 -16 9 -17 -50 l0 -65 31 0
c51 0 144 28 210 63 79 41 78 41 156 119 73 73 119 154 146 260 29 111 5 341
-38 383 -8 7 -9 4 -4 -10z"/>
<path d="M637 778 c3 -32 15 -54 46 -88 23 -25 44 -46 47 -48 3 -1 7 13 8 32
2 29 -6 44 -45 90 -26 30 -51 55 -55 55 -3 1 -4 -18 -1 -41z"/>
<path d="M1400 591 l0 -161 68 0 c122 0 192 58 192 158 0 56 -24 106 -63 134
-24 17 -49 23 -114 26 l-83 5 0 -162z m195 97 c29 -34 39 -94 25 -147 -15 -56
-55 -81 -132 -81 l-58 0 0 131 0 131 71 -4 c62 -3 74 -7 94 -30z"/>
<path d="M1810 739 c-98 -41 -127 -169 -58 -253 49 -59 144 -70 203 -24 79 62
76 199 -5 259 -30 23 -106 33 -140 18z m132 -58 c31 -27 33 -34 33 -91 0 -57
-2 -64 -33 -91 -24 -22 -42 -29 -72 -29 -80 0 -120 41 -120 122 1 78 40 117
117 118 33 0 50 -6 75 -29z"/>
<path d="M2080 590 c0 -136 2 -160 15 -160 13 0 15 21 15 128 1 146 -1 146 76
5 25 -46 51 -83 57 -83 7 0 37 46 67 102 l55 102 3 -127 c2 -104 5 -127 17
-127 13 0 15 26 15 160 0 215 -1 215 -117 2 l-40 -73 -64 115 c-44 81 -69 116
-81 116 -17 0 -18 -13 -18 -160z"/>
<path d="M2500 590 c0 -136 2 -160 15 -160 13 0 15 24 15 160 0 136 -2 160
-15 160 -13 0 -15 -24 -15 -160z"/>
<path d="M2630 589 c0 -124 3 -160 13 -156 8 2 13 36 14 116 1 62 4 115 6 118
3 2 47 -50 98 -116 51 -67 96 -121 101 -121 4 0 8 72 8 160 0 100 -4 160 -10
160 -6 0 -10 -47 -10 -120 0 -66 -4 -120 -9 -120 -4 0 -50 54 -100 120 -51 66
-96 120 -102 120 -5 0 -9 -66 -9 -161z"/>
<path d="M2970 590 c0 -136 2 -160 15 -160 13 0 15 24 15 160 0 136 -2 160
-15 160 -13 0 -15 -24 -15 -160z"/>
<path d="M3163 729 c-109 -54 -109 -225 -1 -278 24 -11 55 -21 69 -21 43 0
113 42 131 80 41 81 9 187 -65 221 -54 24 -82 24 -134 -2z m140 -40 c37 -29
54 -88 38 -138 -20 -70 -90 -100 -165 -71 -78 29 -80 189 -3 220 41 16 103 11
130 -11z"/>
<path d="M3504 707 c-52 -47 -48 -76 5 -32 l30 26 3 -121 3 -120 -32 0 c-23 0
-33 -5 -33 -15 0 -13 13 -15 77 -13 50 2 78 7 81 16 2 8 -8 12 -32 12 l-36 0
0 145 c0 80 -4 145 -9 145 -5 0 -31 -19 -57 -43z"/>
<path d="M3753 740 c-54 -22 -67 -106 -20 -131 20 -11 20 -12 -6 -26 -82 -42
-15 -163 82 -149 76 12 111 101 56 144 -24 19 -24 20 -5 37 36 33 25 97 -21
120 -31 17 -54 18 -86 5z m81 -33 c21 -16 24 -60 6 -82 -19 -23 -76 -19 -94 7
-20 29 -20 47 1 70 19 21 62 24 87 5z m10 -143 c21 -20 20 -63 -1 -86 -22 -24
-77 -24 -103 2 -24 24 -25 48 -4 78 18 27 84 31 108 6z"/>
<path d="M4014 741 c-58 -25 -86 -113 -65 -206 15 -67 48 -100 101 -100 67 0
110 60 110 155 0 57 -18 106 -47 132 -24 22 -71 30 -99 19z m84 -42 c35 -36
42 -125 17 -186 -18 -43 -30 -53 -67 -53 -73 0 -105 160 -47 234 25 32 70 35
97 5z"/>
<path d="M767 655 c-14 -34 -6 -56 38 -105 l45 -51 0 43 c0 35 -7 51 -39 87
-31 36 -39 40 -44 26z"/>
<path d="M636 617 c1 -38 9 -54 45 -96 45 -52 59 -52 59 -1 0 16 -19 46 -53
84 l-53 58 2 -45z"/>
<path d="M121 554 c0 -11 3 -14 6 -6 3 7 2 16 -1 19 -3 4 -6 -2 -5 -13z"/>
<path d="M760 480 c0 -37 16 -66 63 -116 l27 -29 0 40 c0 33 -8 49 -45 90
l-44 50 -1 -35z"/>
<path d="M639 471 c-11 -31 5 -74 40 -111 20 -22 41 -47 47 -56 8 -14 10 -8
10 29 0 40 -5 52 -46 98 -31 35 -49 48 -51 40z"/>
</g>
</svg>
